<?xml version="1.0" encoding="utf-8"?>
<!-- Generator: Adobe Illustrator 27.5.0, SVG Export Plug-In . SVG Version: 6.00 Build 0)  -->
<svg version="1.1" id="Layer_1" xmlns="http://www.w3.org/2000/svg" xmlns:xlink="http://www.w3.org/1999/xlink" x="0px" y="0px"
	 viewBox="0 0 862.4 861.6" style="enable-background:new 0 0 862.4 861.6;" xml:space="preserve">
<g>
	<path d="M208.8,475.8v-30H179V416h29.4V387c-20.1,0-40,0-59.9,0c0-9.9,0-19.9,0-30.3h88.9v-30.2h-88.9V297h-29.8v29.8
		c-10,0-19.5,0-28.9,0c0-19.6,0-39.1,0-58.8H60v58.6h29.7c0,10,0,20.1,0,30.1c-9.9,0-19.8,0-29.8,0v29.6h29.6v-29.7h29.2v30.2h29.8
		v28.7h-29.7v29.8h-29V416H0v-59h29.2v-60H0V238h118.5v29.8h60.3l-0.1-0.1v28.7h30.1v-28.7l-0.1,0.1h29V238h29.9v58.4h30V149h29.1
		c0-10.5,0-20.4,0-30.3c9.9,0,19.9,0,30.3,0V88.6h29.5V60.1h-59.6v58.7h-58.9v29.6h-29.9V60h29.9V29.7l-0.1,0.1h29.9V0h28.9v29.4
		h30.2V0h29.9v29.8h30.3l-0.1-0.1c0,29.7,0.1,59.4,0.1,89.2h-30.2v30.1h-29.8c0,10,0,19.4,0,28.9c-9.9,0-19.8,0-29.8,0v59.6h29.6
		v-59.7H387v29.8h29.9v-29.8c10,0,19.5,0,28.9,0c0,9.9,0,19.8,0,29.8h29.6v-29.6h-29.7l0-29.1h60.3V119h58.9v29.8h30l-0.2-0.1v29.1
		l0.2-0.1h-30.1v30.1l0.1-0.1h-29.3V178h-29.9v148.6h-30l0.1,0.1v-30.2h-30.1c0-10,0-19.4,0-28.9c9.9,0,19.8,0,29.8,0v-29.6h-29.6
		v29.7h-29.3V238H387v59h29.4v29.9h-89.8v59.9l0.1-0.1h-59.2V416h-29.9v59.9l0.1-0.1h-29.1L208.8,475.8L208.8,475.8z M356.3,296.5
		V268H327v28.6H356.3z"/>
	<path d="M802.8,831.7h-30v29.8H744v-58.6h-60v-30h29.3v-30.2H594.6l0.1,0.2v-29.2h-30.3v-29.9h-28.9l0.1,0.1v-30.3h58.7v-29.9
		h-58.7v-29l-0.1,0.1h29.2v-30h29.9l-0.1-0.1v29.7H655V565h28.8V595h60v58.8h29v30h29.9l-0.2-0.1v30h59.8v28.9h-29.8v30.3l0.2-0.1
		h-30.1v59.1L802.8,831.7L802.8,831.7z M625,624v89.4h88.4V624H625z M772.3,772.5v-58.4H744v58.4H772.3z"/>
	<path d="M564.6,772.7v30h29.8v28.9h-29.7v30h-58.9V832H476v-89.3h-30.3l0.1,0.2v-59.1h-29.1l0.1,0.1v-89h-29.9V505h-30.1v-29.3
		l-0.1,0.1h30.2v-30h29.9l-0.1-0.1v59.1h59.1l-0.1-0.1v59.7h30.2v-29.3h29.8v59.7l0.1-0.1h-30.2v59.2c-10.3,0-20.1,0-29.9,0
		c0-19.6,0-39.1,0-58.8h-29.6v58.6h29.7v30.1h60l-0.1-0.1V714H506v28.8h29.9v30h28.9L564.6,772.7L564.6,772.7z M445.3,564.5V535H417
		v29.6H445.3z"/>
	<path d="M624.6,415.8c19.7,0,39.4,0,59.1,0l-0.1-0.1v29.7h30.1v-29.7l-0.1,0.1c10,0,20.1,0,30.1,0l-0.1-0.1v60.2h-29.9v28.9h-30.3
		v30.1h-58.9v29.8h-30l0.1,0.1v-30.3H565v-29.9h29.3V476h-58.7v28.7h-60l0.1,0.1v-59.1h-59.1l0.1,0.1v-30.3h88.7v-28.8H446v-59.9
		h29.7l-0.1-0.1v30.2h89.3v88.7c20.3,0,40.1,0,59.8,0c0,19.6,0,39.1,0,58.8h29.6v-58.6h-29.7c0-10,0.1-20.1,0.2-30.1L624.6,415.8
		L624.6,415.8z"/>
	<path d="M207.9,861.6H0.9V654.2h207L207.9,861.6L207.9,861.6z M30.7,683.8v148.1h147.8V683.8L30.7,683.8L30.7,683.8z"/>
	<path d="M207.9,207.6H0.9V0.2h207V207.6L207.9,207.6z M30.4,177.9h148.1V30H30.4C30.4,30,30.4,177.9,30.4,177.9z"/>
	<path d="M862,207.6h-207V0.2h207V207.6z M684.4,177.9h148.1V30H684.4V177.9z"/>
	<path d="M356.8,772.7h-29.9v29.9H298v29h-30.2v29.9h-29.7V742.7c9.9,0,19.8,0,29.7,0c0,9.9,0,19.8,0,29.8h29.6v-29.6h-29.7v-59
		h30.2l-0.1-0.2v29.7h29.1v-29.7l-0.1,0.2c30,0,60.1,0,90.1,0l-0.1-0.1v30.3h-60v58.9L356.8,772.7L356.8,772.7z"/>
	<path d="M148.6,564.7v58.7h-29.7v-28.3H89.8v28.3H30v-28.5h29.7v-30h29.7v-30.2H29.6l0.1,0.1v-29.7h88.7v59.8h30.2L148.6,564.7
		L148.6,564.7z"/>
	<path d="M832.6,504.8h29.7v118.8h-29.7l0.1,0.2v-58.7h-30.1v58.7l0.1-0.1h-30.2v-59.1h-28.9c0-10.3,0-20.1,0-29.9h89.2v-30
		L832.6,504.8L832.6,504.8z"/>
	<path d="M594.6,267.8h30V238h29.7v148.6h-29.7l0.1,0.1v-30.3h-30v-88.9L594.6,267.8L594.6,267.8z"/>
	<path d="M713.8,326.8v-88.7h88.8v29.7l0.1-0.1h-29.9v59h-59.2L713.8,326.8L713.8,326.8z"/>
	<path d="M356.8,475.7h-29.9v-30h-29.2l0.1,0.1v-30.2h29v-28.9l-0.1,0.1h30.3V357h29.5v58.9h-29.8v59.9L356.8,475.7L356.8,475.7z"/>
	<path d="M148.8,564.8v-89c20.2,0,40.1,0,60,0l-0.1-0.1v29.1l0.1-0.1h-29.7v30.1h29.7l-0.1-0.1v30c-20.2,0-40.1,0-60,0L148.8,564.8
		L148.8,564.8z"/>
	<path d="M713.6,326.7v29.9h30v30.2l0.2-0.1h-30.1v29.1l0.1-0.1c-10,0-20.1,0-30.1,0l0.1,0.1c0-29.5,0-58.9,0-89c10.2,0,20.1,0,30,0
		L713.6,326.7L713.6,326.7z"/>
	<path d="M416.8,29.8V0.1h88.9v59.7l0.1-0.1c-10,0-20.1,0.1-30.1,0.2V29.7h-59L416.8,29.8L416.8,29.8z"/>
	<path d="M802.6,445.8h59.7v29.8h-29.7v29.2l0.1-0.1H773v-29.1h29.8v-29.9L802.6,445.8L802.6,445.8z"/>
	<path d="M297.8,594.8v-30H268v-29.7h58.6v29.4h29.7v30.1h-58.7L297.8,594.8L297.8,594.8z"/>
	<path d="M594.6,59.8h29.7v88.8c-9.9,0-19.8,0-29.7,0l0.2,0.1V59.7L594.6,59.8L594.6,59.8z"/>
	<path d="M802.6,267.8c10,0,20.1,0,30.2,0l-0.1-0.1v88.7h-29.9c0-29.6,0-59.2,0-88.7L802.6,267.8L802.6,267.8z"/>
	<path d="M445.6,742.7v60h-29l0.1,0.2v-30.1h-30.1l0.1,0.1v-30h59L445.6,742.7z"/>
	<path d="M356.8,831.8c0-19.7,0-39.4,0-59.1l-0.1,0.2h30.1l-0.1-0.1v30.1h30.1l-0.1-0.2c0,9.5,0,18.9,0,29h-60L356.8,831.8
		L356.8,831.8z"/>
	<path d="M297.6,445.7v59h-60l0.1,0.1v-29.1l-0.1,0.1h30.2v-30h29.9L297.6,445.7z"/>
	<path d="M297.6,594.7v28.9h-29.7v29.7h-29.9v-58.5c19.9,0,39.8,0,59.7,0L297.6,594.7L297.6,594.7z"/>
	<path d="M743.6,386.8h59c0,19.8,0,39.4,0,59l0.1-0.1h-30.2v-30h-28.9l0.1,0.1v-29.1L743.6,386.8L743.6,386.8z"/>
	<path d="M832.6,623.7v60h-30l0.2,0.1v-60.1l-0.1,0.1h30.1L832.6,623.7z"/>
	<path d="M594.6,207.7c0,20.1,0,40.1,0,60.1l0.1-0.1h-30v-60l-0.1,0.1c10,0,20.1,0,30.1,0L594.6,207.7z"/>
	<path d="M535.8,59.8V30.1h58.8v29.7l0.1-0.2c-19.7,0-39.4,0-59.1,0C535.6,59.7,535.8,59.8,535.8,59.8z"/>
	<path d="M832.6,772.8h29.7v58.8h-29.7l0.1,0.2v-59.1L832.6,772.8z"/>
	<path d="M655,832h58.4v29.4H655V832z"/>
	<path d="M178.8,267.8v-29.7h29.9c0,9.9,0,19.8,0,29.7l0.1-0.1h-30.1L178.8,267.8z"/>
	<path d="M594.6,177.8h29.7v29.9c-9.9,0-19.8,0-29.7,0l0.2,0.1v-30.1L594.6,177.8z"/>
	<path d="M29.6,534.7v29.7H0v-29.6c9.9,0,19.8,0,29.8,0L29.6,534.7L29.6,534.7z"/>
	<path d="M267.8,29.7h-29.7V0.1h29.6c0,9.9,0,19.8,0,29.8L267.8,29.7z"/>
	<path d="M356.6,831.7v29.7H327v-29.6c9.9,0,19.8,0,29.8,0L356.6,831.7L356.6,831.7z"/>
	<path d="M832.8,267.8v-29.7h29.6v29.6c-9.9,0-19.8,0-29.8,0L832.8,267.8z"/>
	<path d="M238.1,178h29.4v29.4H238L238.1,178L238.1,178z"/>
	<path d="M594.6,742.7v30h-30l0.2,0.1v-30h30L594.6,742.7z"/>
	<path d="M832.6,831.7v29.7h-29.9v-29.7l-0.1,0.2h30.1L832.6,831.7z"/>
	<path d="M624.6,386.7c0,9.7,0,19.4,0,29.2l0.1-0.1h-29.7v-28.9h29.7L624.6,386.7z"/>
	<path d="M297.8,683.8v-29.7h28.9c0,9.9,0,19.8,0,29.7l0.1-0.2h-29.1L297.8,683.8L297.8,683.8z"/>
	<path d="M237.6,504.7v30h-29l0.1,0.1c0-10,0-20.1,0-30.1l-0.1,0.1h29.1L237.6,504.7z"/>
	<path d="M208.4,623.5H179v-28.4h29.4V623.5z"/>
	<path d="M505.6,59.8c10,0,20.1,0,30.2,0l-0.2-0.1v28.7h-29.9V59.7L505.6,59.8L505.6,59.8z"/>
	<path d="M535.9,326.5v-29.4h28.5v29.4H535.9z"/>
	<path d="M445.6,118.8V59.7h30.1v59.1H445.6z"/>
	<path d="M416.6,118.7h29.1v30.1h-29.1C416.6,148.8,416.6,118.7,416.6,118.7z"/>
	<path d="M713.6,504.7h30.1v30.1h-30.1V504.7z"/>
	<path d="M683.3,683.5H655v-29.4h28.4V683.5z"/>
	<path d="M59.9,802.2v-88.5h88.4v88.5H59.9z"/>
	<path d="M148.5,59.6v88.6H60.1V59.6H148.5z"/>
	<path d="M802.6,59.7v88.5h-88.4V59.7H802.6z"/>
</g>
</svg>
